<svg xmlns="http://www.w3.org/2000/svg" version="1.1" xmlns:xlink="http://www.w3.org/1999/xlink" xmlns:svgjs="http://svgjs.dev/svgjs" width="1000" height="1000" viewBox="0 0 1000 1000"><rect width="1000" height="1000" fill="#000000"></rect><g transform="matrix(0.7,0,0,0.7,149.57575757575756,282.1265587044535)"><svg viewBox="0 0 396 247" data-background-color="#ffffff" preserveAspectRatio="xMidYMid meet" height="623" width="1000" xmlns="http://www.w3.org/2000/svg" xmlns:xlink="http://www.w3.org/1999/xlink"><g id="tight-bounds" transform="matrix(1,0,0,1,0.2400000000000091,-0.09999999999999432)"><svg viewBox="0 0 395.52 247.2" height="247.2" width="395.52"><g><svg></svg></g><g><svg viewBox="0 0 395.52 247.2" height="247.2" width="395.52"><g transform="matrix(1,0,0,1,39.55199999999999,69.3742824858757)"><svg viewBox="0 0 316.416 108.4514350282486" height="108.4514350282486" width="316.416"><g><svg viewBox="0 0 316.416 108.4514350282486" height="108.4514350282486" width="316.416"><g><svg viewBox="0 0 316.416 108.4514350282486" height="108.4514350282486" width="316.416"><g><svg viewBox="0 0 316.416 108.4514350282486" height="108.4514350282486" width="316.416"><g><svg viewBox="0 0 316.416 108.4514350282486" height="108.4514350282486" width="316.416"><g><svg viewBox="0 0 316.416 108.4514350282486" height="108.4514350282486" width="316.416"><g transform="matrix(1,0,0,1,0,0)"><svg width="316.416" viewBox="4.949999809265137 -35.5 132.74000549316406 45.5" height="108.4514350282486" data-palette-color="#3f4a50"><path d="M20.15-18.4L17.35-16.8 16.6-18.1 19.4-19.7Q22.85-21.6 22.85-25.75L22.85-25.75Q22.85-33.5 11.05-33.5L11.05-33.5 6.45-33.5 6.45 0 4.95 0 4.95-35 11.05-35Q17.65-35 21-32.58 24.35-30.15 24.35-25.75L24.35-25.75Q24.35-20.75 20.15-18.4L20.15-18.4ZM32.95-33.5L32.95-35 53.2-35 40.7-15 40.7 0 39.2 0 39.2-15 26.7-35 28.45-35 39.95-16.65 50.5-33.5 32.95-33.5ZM63.34 0L63.34 0 58.55 0 58.55-35 63.34-35Q70.55-35 75.55-29.7 80.55-24.4 80.55-17.5 80.55-10.6 75.55-5.3 70.55 0 63.34 0ZM60.05-1.5L63.34-1.5Q69.89-1.5 74.47-6.33 79.05-11.15 79.05-17.5 79.05-23.85 74.47-28.68 69.89-33.5 63.34-33.5L63.34-33.5 60.05-33.5 60.05-1.5ZM89.09 0L89.09-1.5 107.49-1.5 96.89-30.65 85.74 0 84.14 0 96.89-35.05 109.64 0 89.09 0ZM137.69-19.95L137.69-15.05Q137.69-5.3 133.49-1.75L133.49-1.75 132.54-2.9Q136.19-6 136.19-15.05L136.19-15.05 136.19-19.95Q136.19-24.1 135.49-26.93 134.79-29.75 133.39-31.25 131.99-32.75 130.24-33.38 128.49-34 126.04-34 123.59-34 121.84-33.38 120.09-32.75 118.69-31.25 117.29-29.75 116.59-26.93 115.89-24.1 115.89-19.95L115.89-19.95 115.89-15.05Q115.89-10.9 116.59-8.08 117.29-5.25 118.69-3.75 120.09-2.25 121.84-1.63 123.59-1 126.04-1L126.04-1Q126.04 4.55 127.82 6.53 129.59 8.5 133.34 8.5L133.34 8.5 133.34 10Q129.29 10 127.09 8 124.89 6 124.59 0.45L124.59 0.45Q119.24 0 116.82-3.78 114.39-7.55 114.39-15.05L114.39-15.05 114.39-19.95Q114.39-27.95 117.14-31.73 119.89-35.5 126.04-35.5 132.19-35.5 134.94-31.73 137.69-27.95 137.69-19.95L137.69-19.95Z" opacity="1" transform="matrix(1,0,0,1,0,0)" fill="#ffffff" class="undefined-text-0" data-fill-palette-color="primary" id="text-0"></path></svg></g></svg></g></svg></g></svg></g><g></g></svg></g></svg></g></svg></g><g mask="url(#f98a8922-7ab4-4315-90e9-4f1630bd1949)"><g transform="matrix(3.2216098940429467, 0, 0, 3.2216098940429467, 44.731920112854596, 1)"><svg xmlns="http://www.w3.org/2000/svg" xmlns:xlink="http://www.w3.org/1999/xlink" version="1.1" x="0" y="0" viewBox="2.2669999599456787 12.885000228881836 95.0009994506836 76.11101531982422" enable-background="new 0 0 100 100" xml:space="preserve" height="76.11101531982422" width="95.0009994506836" class="icon-none" data-fill-palette-color="accent" id="none"><circle fill="none" cx="49.767" cy="73.536" r="1.8"></circle><path d="M94.436 12.885H50.555h-1.496H5.177c-1.563 0-2.91 1.189-2.91 2.752V69.73v0.189 5.012 0.314c0 1.563 1.347 2.877 2.91 2.877h35.146c-0.041 0.896-0.321 4.753-2.155 6.623-1.445 1.473-3.454 2.854-2.669 3.563 0.19 0.436 1.091 0.688 3.14 0.688 4.52 0 9.416 0 11.208 0 0.453 0 0.708 0 0.708 0 1.791 0 6.688 0 11.207 0 2.334 0 3.149-0.382 3.157-0.953h-0.08v-0.188h-0.082c-0.104-0.77-1.661-1.908-2.84-3.106-1.834-1.87-2.112-5.726-2.153-6.623h34.674c1.563 0 2.83-1.313 2.83-2.877v-0.315-5.011-0.19V15.639C97.268 14.074 95.998 12.885 94.436 12.885zM49.767 75.382c-1.021 0-1.846-0.825-1.846-1.846s0.826-1.847 1.846-1.847 1.846 0.826 1.846 1.847S50.786 75.382 49.767 75.382zM93.26 65.727H6.274V16.702H93.26V65.727h0.002H93.26z" fill="#ffffff" data-fill-palette-color="accent"></path><rect x="10.6" y="22.452" width="39.167" height="2.392" fill="#ffffff" data-fill-palette-color="accent"></rect><rect x="10.6" y="26.844" width="78.333" height="2.392" fill="#ffffff" data-fill-palette-color="accent"></rect><rect x="10.6" y="31.235" width="78.333" height="2.392" fill="#ffffff" data-fill-palette-color="accent"></rect><rect x="10.6" y="35.627" width="78.333" height="2.392" fill="#ffffff" data-fill-palette-color="accent"></rect><rect x="10.6" y="40.019" width="78.333" height="2.392" fill="#ffffff" data-fill-palette-color="accent"></rect><rect x="10.6" y="44.41" width="39.167" height="2.392" fill="#ffffff" data-fill-palette-color="accent"></rect><rect x="10.6" y="48.802" width="78.333" height="2.391" fill="#ffffff" data-fill-palette-color="accent"></rect><rect x="10.6" y="53.193" width="78.333" height="2.391" fill="#ffffff" data-fill-palette-color="accent"></rect><rect x="10.6" y="57.584" width="78.333" height="2.393" fill="#ffffff" data-fill-palette-color="accent"></rect></svg></g></g></svg></g><defs><mask id="f8f681cb-0915-45a5-a110-ce55fda140db"><rect width="640" height="400" fill="white"></rect><rect width="348.05760000000004" height="159.65699697970624" fill="black" x="145.97119999999998" y="120.17150151014688" id="transform-me" transform="matrix(1,0,0,1,-122.24000000000001,-76.4)"></rect></mask><mask id="5027610f-b36a-4622-903f-9c02d50cbd87"><rect width="640" height="400" fill="white"></rect><rect width="348.05760000000004" height="159.65699697970624" fill="black" x="145.97119999999998" y="120.17150151014688" id="transform-me" transform="matrix(1,0,0,1,-122.24000000000001,-76.4)"></rect></mask><mask id="cf2814a8-8666-4aae-92b0-ee2d1a7383fd"><rect width="640" height="400" fill="white"></rect><rect width="348.05760000000004" height="159.65699697970624" fill="black" x="145.97119999999998" y="120.17150151014688" id="transform-me" transform="matrix(1,0,0,1,-122.24000000000001,-76.4)"></rect></mask><mask id="d1791fe0-5cf0-4863-8680-156dfbe50e35"><rect width="640" height="400" fill="white"></rect><rect width="348.05760000000004" height="159.65699697970624" fill="black" x="145.97119999999998" y="120.17150151014688" id="transform-me" transform="matrix(1,0,0,1,-122.24000000000001,-76.4)"></rect></mask><mask id="df2b5fd3-43e7-4def-9275-bccf88b75e0e"><rect width="640" height="400" fill="white"></rect><rect width="348.05760000000004" height="159.65699697970624" fill="black" x="145.97119999999998" y="120.17150151014688" id="transform-me" transform="matrix(1,0,0,1,-122.24000000000001,-76.4)"></rect></mask><mask id="33a5c526-bd26-4e2b-9031-28afea809896"><rect width="640" height="400" fill="white"></rect><rect width="348.05760000000004" height="159.65699697970624" fill="black" x="145.97119999999998" y="120.17150151014688" id="transform-me" transform="matrix(1,0,0,1,-122.24000000000001,-76.4)"></rect></mask><mask id="b0e39c43-e31f-4181-a858-c796434f2552"><rect width="640" height="400" fill="white"></rect><rect width="348.05760000000004" height="159.65699697970624" fill="black" x="145.97119999999998" y="120.17150151014688" id="transform-me" transform="matrix(1,0,0,1,-122.24000000000001,-76.4)"></rect></mask><mask id="fa7a1335-c5d1-4b4f-929a-a23a41a20a5a"><rect width="640" height="400" fill="white"></rect><rect width="348.05760000000004" height="159.65699697970624" fill="black" x="145.97119999999998" y="120.17150151014688" id="transform-me" transform="matrix(1,0,0,1,-122.24000000000001,-76.4)"></rect></mask><mask id="c5d37065-a749-4acc-ba0f-e17edf8ec663"><rect width="640" height="400" fill="white"></rect><rect width="348.05760000000004" height="159.65699697970624" fill="black" x="145.97119999999998" y="120.17150151014688" id="transform-me" transform="matrix(1,0,0,1,-122.24000000000001,-76.4)"></rect></mask><mask id="2f96ddea-7cda-443d-a728-926b05de70f0"><rect width="640" height="400" fill="white"></rect><rect width="348.05760000000004" height="159.65699697970624" fill="black" x="145.97119999999998" y="120.17150151014688" id="transform-me" transform="matrix(1,0,0,1,-122.24000000000001,-76.4)"></rect></mask><mask id="73e8a5a6-c4e0-47bb-8275-d6e606dc8793"><rect width="640" height="400" fill="white"></rect><rect width="348.05760000000004" height="159.65699697970624" fill="black" x="145.97119999999998" y="120.17150151014688" id="transform-me" transform="matrix(1,0,0,1,-122.24000000000001,-76.4)"></rect></mask><mask id="1b60bc3e-62f6-4c50-a379-ebc12350d41b"><rect width="640" height="400" fill="white"></rect><rect width="348.05760000000004" height="159.65699697970624" fill="black" x="145.97119999999998" y="120.17150151014688" id="transform-me" transform="matrix(1,0,0,1,-122.24000000000001,-76.4)"></rect></mask><mask id="ae9708a2-c7c1-49b4-9c32-3af7c9b012d9"><rect width="640" height="400" fill="white"></rect><rect width="348.05760000000004" height="159.65699697970624" fill="black" x="145.97119999999998" y="120.17150151014688" id="transform-me" transform="matrix(1,0,0,1,-122.24000000000001,-76.4)"></rect></mask><mask id="aed2f624-9020-444e-8a8d-ae869cc36faa"><rect width="640" height="400" fill="white"></rect><rect width="348.05760000000004" height="159.65699697970624" fill="black" x="145.97119999999998" y="120.17150151014688" id="transform-me" transform="matrix(1,0,0,1,-122.24000000000001,-76.4)"></rect></mask><mask id="effa1fcd-40ad-459d-9120-5a06e352d7f0"><rect width="640" height="400" fill="white"></rect><rect width="435.072" height="199.57124622463277" fill="black" x="102.464" y="100.21437688768361" id="transform-me" transform="matrix(1,0,0,1,-122.24000000000001,-76.4)"></rect></mask><mask id="9c3d4782-9cbe-4b5b-ad84-ecb5f7fa2bcb"><rect width="640" height="400" fill="white"></rect><rect width="435.072" height="199.57124622463277" fill="black" x="102.464" y="100.21437688768361" id="transform-me" transform="matrix(1,0,0,1,-122.24000000000001,-76.4)"></rect></mask><mask id="fadf0592-52dd-4766-baf6-b511855df367"><rect width="640" height="400" fill="white"></rect><rect width="348.05760000000004" height="159.65699697970624" fill="black" x="145.97119999999998" y="120.17150151014688" id="transform-me" transform="matrix(1,0,0,1,-122.24000000000001,-76.4)"></rect></mask><mask id="1257552f-4a4e-44e3-8855-595093b9ce24"><rect width="640" height="400" fill="white"></rect><rect width="232.0384" height="106.43799798647079" fill="black" x="203.9808" y="146.7810010067646" id="transform-me" transform="matrix(1,0,0,1,-122.24000000000001,-76.4)"></rect></mask><mask id="3e63a507-59a4-40a2-bba1-bf3f64b636bb"><rect width="640" height="400" fill="white"></rect><rect width="174.02880000000002" height="79.82849848985312" fill="black" x="232.98559999999998" y="160.08575075507343" id="transform-me" transform="matrix(1,0,0,1,-122.24000000000001,-76.4)"></rect></mask><mask id="29778ffc-5d03-4cf1-a6e1-4b5f1a0109e0"><rect width="640" height="400" fill="white"></rect><rect width="348.05760000000004" height="159.65699697970624" fill="black" x="145.97119999999998" y="120.17150151014688" id="transform-me" transform="matrix(1,0,0,1,-122.24000000000001,-76.4)"></rect></mask><mask id="82bb06b4-9da4-45d0-a6e1-bf439c95de55"><rect width="640" height="400" fill="white"></rect><rect width="435.072" height="199.57124622463277" fill="black" x="102.464" y="100.21437688768361" id="transform-me" transform="matrix(1,0,0,1,-122.24000000000001,-76.4)"></rect></mask><mask id="25a07088-61da-42e6-8f61-df8221198280"><rect width="640" height="400" fill="white"></rect><rect width="435.072" height="199.57124622463277" fill="black" x="102.464" y="100.21437688768361" id="transform-me" transform="matrix(1,0,0,1,-122.24000000000001,-76.4)"></rect></mask><mask id="9b33e4fd-8ff5-4a1f-ab56-ebc8066f588c"><rect width="640" height="400" fill="white"></rect><rect width="348.05760000000004" height="159.65699697970624" fill="black" x="145.97119999999998" y="120.17150151014688" id="transform-me" transform="matrix(1,0,0,1,-122.24000000000001,-76.4)"></rect></mask><mask id="d097b6aa-a8db-43bd-ae5e-1a7167719df5"><rect width="640" height="400" fill="white"></rect><rect width="232.0384" height="106.43799798647079" fill="black" x="203.9808" y="146.7810010067646" id="transform-me" transform="matrix(1,0,0,1,-122.24000000000001,-76.4)"></rect></mask><mask id="71c982ba-3f22-42c0-9b28-95803cc555d4"><rect width="640" height="400" fill="white"></rect><rect width="174.02880000000002" height="79.82849848985312" fill="black" x="232.98559999999998" y="160.08575075507343" id="transform-me" transform="matrix(1,0,0,1,-122.24000000000001,-76.4)"></rect></mask><mask id="99216838-1360-4859-960a-a54530ee20b8"><rect width="640" height="400" fill="white"></rect><rect width="348.05760000000004" height="159.65699697970624" fill="black" x="145.97119999999998" y="120.17150151014688" id="transform-me" transform="matrix(1,0,0,1,-122.24000000000001,-76.4)"></rect></mask><mask id="6694bdb0-51e6-4f43-8f7f-9598be4440f3"><rect width="640" height="400" fill="white"></rect><rect width="174.02880000000002" height="79.82849848985312" fill="black" x="232.98559999999998" y="160.08575075507343" id="transform-me" transform="matrix(1,0,0,1,-122.24000000000001,-76.4)"></rect></mask><mask id="f98a8922-7ab4-4315-90e9-4f1630bd1949"><rect width="640" height="400" fill="white"></rect><rect width="348.05760000000004" height="159.65699697970624" fill="black" x="145.97119999999998" y="120.17150151014688" id="transform-me" transform="matrix(1,0,0,1,-122.24000000000001,-76.4)"></rect></mask></defs></svg><rect width="395.52" height="247.2" fill="none" stroke="none" visibility="hidden"></rect></g></svg></g></svg>